<?xml version="1.0" standalone="no"?>
<svg xmlns="http://www.w3.org/2000/svg" width="300" height="300" xmlns:xlink="http://www.w3.org/1999/xlink" viewBox="0 0 300 300"><defs><clipPath id="clip-path-background-color-19"><rect x="0" y="0" width="300" height="300"/></clipPath><clipPath id="clip-path-dot-color-19"><rect x="106" y="34" width="8" height="8" transform="rotate(0,110,38)"/><rect x="114" y="34" width="8" height="8" transform="rotate(0,118,38)"/><rect x="122" y="34" width="8" height="8" transform="rotate(0,126,38)"/><rect x="130" y="34" width="8" height="8" transform="rotate(0,134,38)"/><rect x="138" y="34" width="8" height="8" transform="rotate(0,142,38)"/><rect x="146" y="34" width="8" height="8" transform="rotate(0,150,38)"/><rect x="154" y="34" width="8" height="8" transform="rotate(0,158,38)"/><rect x="170" y="34" width="8" height="8" transform="rotate(0,174,38)"/><rect x="178" y="34" width="8" height="8" transform="rotate(0,182,38)"/><rect x="186" y="34" width="8" height="8" transform="rotate(0,190,38)"/><rect x="98" y="42" width="8" height="8" transform="rotate(0,102,46)"/><rect x="114" y="42" width="8" height="8" transform="rotate(0,118,46)"/><rect x="130" y="42" width="8" height="8" transform="rotate(0,134,46)"/><rect x="146" y="42" width="8" height="8" transform="rotate(0,150,46)"/><rect x="154" y="42" width="8" height="8" transform="rotate(0,158,46)"/><rect x="162" y="42" width="8" height="8" transform="rotate(0,166,46)"/><rect x="170" y="42" width="8" height="8" transform="rotate(0,174,46)"/><rect x="186" y="42" width="8" height="8" transform="rotate(0,190,46)"/><rect x="106" y="50" width="8" height="8" transform="rotate(0,110,54)"/><rect x="114" y="50" width="8" height="8" transform="rotate(0,118,54)"/><rect x="122" y="50" width="8" height="8" transform="rotate(0,126,54)"/><rect x="146" y="50" width="8" height="8" transform="rotate(0,150,54)"/><rect x="154" y="50" width="8" height="8" transform="rotate(0,158,54)"/><rect x="178" y="50" width="8" height="8" transform="rotate(0,182,54)"/><rect x="106" y="58" width="8" height="8" transform="rotate(0,110,62)"/><rect x="122" y="58" width="8" height="8" transform="rotate(0,126,62)"/><rect x="154" y="58" width="8" height="8" transform="rotate(0,158,62)"/><rect x="178" y="58" width="8" height="8" transform="rotate(0,182,62)"/><rect x="186" y="58" width="8" height="8" transform="rotate(0,190,62)"/><rect x="194" y="58" width="8" height="8" transform="rotate(0,198,62)"/><rect x="98" y="66" width="8" height="8" transform="rotate(0,102,70)"/><rect x="106" y="66" width="8" height="8" transform="rotate(0,110,70)"/><rect x="114" y="66" width="8" height="8" transform="rotate(0,118,70)"/><rect x="122" y="66" width="8" height="8" transform="rotate(0,126,70)"/><rect x="130" y="66" width="8" height="8" transform="rotate(0,134,70)"/><rect x="138" y="66" width="8" height="8" transform="rotate(0,142,70)"/><rect x="146" y="66" width="8" height="8" transform="rotate(0,150,70)"/><rect x="154" y="66" width="8" height="8" transform="rotate(0,158,70)"/><rect x="186" y="66" width="8" height="8" transform="rotate(0,190,70)"/><rect x="106" y="74" width="8" height="8" transform="rotate(0,110,78)"/><rect x="114" y="74" width="8" height="8" transform="rotate(0,118,78)"/><rect x="146" y="74" width="8" height="8" transform="rotate(0,150,78)"/><rect x="154" y="74" width="8" height="8" transform="rotate(0,158,78)"/><rect x="162" y="74" width="8" height="8" transform="rotate(0,166,78)"/><rect x="170" y="74" width="8" height="8" transform="rotate(0,174,78)"/><rect x="178" y="74" width="8" height="8" transform="rotate(0,182,78)"/><rect x="186" y="74" width="8" height="8" transform="rotate(0,190,78)"/><rect x="194" y="74" width="8" height="8" transform="rotate(0,198,78)"/><rect x="98" y="82" width="8" height="8" transform="rotate(0,102,86)"/><rect x="114" y="82" width="8" height="8" transform="rotate(0,118,86)"/><rect x="130" y="82" width="8" height="8" transform="rotate(0,134,86)"/><rect x="146" y="82" width="8" height="8" transform="rotate(0,150,86)"/><rect x="162" y="82" width="8" height="8" transform="rotate(0,166,86)"/><rect x="178" y="82" width="8" height="8" transform="rotate(0,182,86)"/><rect x="194" y="82" width="8" height="8" transform="rotate(0,198,86)"/><rect x="106" y="90" width="8" height="8" transform="rotate(0,110,94)"/><rect x="114" y="90" width="8" height="8" transform="rotate(0,118,94)"/><rect x="138" y="90" width="8" height="8" transform="rotate(0,142,94)"/><rect x="146" y="90" width="8" height="8" transform="rotate(0,150,94)"/><rect x="154" y="90" width="8" height="8" transform="rotate(0,158,94)"/><rect x="170" y="90" width="8" height="8" transform="rotate(0,174,94)"/><rect x="178" y="90" width="8" height="8" transform="rotate(0,182,94)"/><rect x="186" y="90" width="8" height="8" transform="rotate(0,190,94)"/><rect x="34" y="98" width="8" height="8" transform="rotate(0,38,102)"/><rect x="50" y="98" width="8" height="8" transform="rotate(0,54,102)"/><rect x="66" y="98" width="8" height="8" transform="rotate(0,70,102)"/><rect x="82" y="98" width="8" height="8" transform="rotate(0,86,102)"/><rect x="122" y="98" width="8" height="8" transform="rotate(0,126,102)"/><rect x="146" y="98" width="8" height="8" transform="rotate(0,150,102)"/><rect x="154" y="98" width="8" height="8" transform="rotate(0,158,102)"/><rect x="162" y="98" width="8" height="8" transform="rotate(0,166,102)"/><rect x="170" y="98" width="8" height="8" transform="rotate(0,174,102)"/><rect x="186" y="98" width="8" height="8" transform="rotate(0,190,102)"/><rect x="194" y="98" width="8" height="8" transform="rotate(0,198,102)"/><rect x="226" y="98" width="8" height="8" transform="rotate(0,230,102)"/><rect x="250" y="98" width="8" height="8" transform="rotate(0,254,102)"/><rect x="50" y="106" width="8" height="8" transform="rotate(0,54,110)"/><rect x="58" y="106" width="8" height="8" transform="rotate(0,62,110)"/><rect x="66" y="106" width="8" height="8" transform="rotate(0,70,110)"/><rect x="74" y="106" width="8" height="8" transform="rotate(0,78,110)"/><rect x="162" y="106" width="8" height="8" transform="rotate(0,166,110)"/><rect x="170" y="106" width="8" height="8" transform="rotate(0,174,110)"/><rect x="194" y="106" width="8" height="8" transform="rotate(0,198,110)"/><rect x="202" y="106" width="8" height="8" transform="rotate(0,206,110)"/><rect x="210" y="106" width="8" height="8" transform="rotate(0,214,110)"/><rect x="234" y="106" width="8" height="8" transform="rotate(0,238,110)"/><rect x="258" y="106" width="8" height="8" transform="rotate(0,262,110)"/><rect x="34" y="114" width="8" height="8" transform="rotate(0,38,118)"/><rect x="42" y="114" width="8" height="8" transform="rotate(0,46,118)"/><rect x="50" y="114" width="8" height="8" transform="rotate(0,54,118)"/><rect x="58" y="114" width="8" height="8" transform="rotate(0,62,118)"/><rect x="66" y="114" width="8" height="8" transform="rotate(0,70,118)"/><rect x="82" y="114" width="8" height="8" transform="rotate(0,86,118)"/><rect x="90" y="114" width="8" height="8" transform="rotate(0,94,118)"/><rect x="98" y="114" width="8" height="8" transform="rotate(0,102,118)"/><rect x="130" y="114" width="8" height="8" transform="rotate(0,134,118)"/><rect x="138" y="114" width="8" height="8" transform="rotate(0,142,118)"/><rect x="170" y="114" width="8" height="8" transform="rotate(0,174,118)"/><rect x="178" y="114" width="8" height="8" transform="rotate(0,182,118)"/><rect x="202" y="114" width="8" height="8" transform="rotate(0,206,118)"/><rect x="226" y="114" width="8" height="8" transform="rotate(0,230,118)"/><rect x="242" y="114" width="8" height="8" transform="rotate(0,246,118)"/><rect x="250" y="114" width="8" height="8" transform="rotate(0,254,118)"/><rect x="258" y="114" width="8" height="8" transform="rotate(0,262,118)"/><rect x="34" y="122" width="8" height="8" transform="rotate(0,38,126)"/><rect x="42" y="122" width="8" height="8" transform="rotate(0,46,126)"/><rect x="50" y="122" width="8" height="8" transform="rotate(0,54,126)"/><rect x="58" y="122" width="8" height="8" transform="rotate(0,62,126)"/><rect x="66" y="122" width="8" height="8" transform="rotate(0,70,126)"/><rect x="90" y="122" width="8" height="8" transform="rotate(0,94,126)"/><rect x="130" y="122" width="8" height="8" transform="rotate(0,134,126)"/><rect x="170" y="122" width="8" height="8" transform="rotate(0,174,126)"/><rect x="194" y="122" width="8" height="8" transform="rotate(0,198,126)"/><rect x="210" y="122" width="8" height="8" transform="rotate(0,214,126)"/><rect x="218" y="122" width="8" height="8" transform="rotate(0,222,126)"/><rect x="250" y="122" width="8" height="8" transform="rotate(0,254,126)"/><rect x="34" y="130" width="8" height="8" transform="rotate(0,38,134)"/><rect x="42" y="130" width="8" height="8" transform="rotate(0,46,134)"/><rect x="58" y="130" width="8" height="8" transform="rotate(0,62,134)"/><rect x="66" y="130" width="8" height="8" transform="rotate(0,70,134)"/><rect x="74" y="130" width="8" height="8" transform="rotate(0,78,134)"/><rect x="82" y="130" width="8" height="8" transform="rotate(0,86,134)"/><rect x="90" y="130" width="8" height="8" transform="rotate(0,94,134)"/><rect x="106" y="130" width="8" height="8" transform="rotate(0,110,134)"/><rect x="122" y="130" width="8" height="8" transform="rotate(0,126,134)"/><rect x="130" y="130" width="8" height="8" transform="rotate(0,134,134)"/><rect x="170" y="130" width="8" height="8" transform="rotate(0,174,134)"/><rect x="178" y="130" width="8" height="8" transform="rotate(0,182,134)"/><rect x="194" y="130" width="8" height="8" transform="rotate(0,198,134)"/><rect x="210" y="130" width="8" height="8" transform="rotate(0,214,134)"/><rect x="218" y="130" width="8" height="8" transform="rotate(0,222,134)"/><rect x="234" y="130" width="8" height="8" transform="rotate(0,238,134)"/><rect x="250" y="130" width="8" height="8" transform="rotate(0,254,134)"/><rect x="258" y="130" width="8" height="8" transform="rotate(0,262,134)"/><rect x="34" y="138" width="8" height="8" transform="rotate(0,38,142)"/><rect x="50" y="138" width="8" height="8" transform="rotate(0,54,142)"/><rect x="58" y="138" width="8" height="8" transform="rotate(0,62,142)"/><rect x="98" y="138" width="8" height="8" transform="rotate(0,102,142)"/><rect x="114" y="138" width="8" height="8" transform="rotate(0,118,142)"/><rect x="130" y="138" width="8" height="8" transform="rotate(0,134,142)"/><rect x="138" y="138" width="8" height="8" transform="rotate(0,142,142)"/><rect x="162" y="138" width="8" height="8" transform="rotate(0,166,142)"/><rect x="194" y="138" width="8" height="8" transform="rotate(0,198,142)"/><rect x="202" y="138" width="8" height="8" transform="rotate(0,206,142)"/><rect x="210" y="138" width="8" height="8" transform="rotate(0,214,142)"/><rect x="234" y="138" width="8" height="8" transform="rotate(0,238,142)"/><rect x="258" y="138" width="8" height="8" transform="rotate(0,262,142)"/><rect x="42" y="146" width="8" height="8" transform="rotate(0,46,150)"/><rect x="50" y="146" width="8" height="8" transform="rotate(0,54,150)"/><rect x="66" y="146" width="8" height="8" transform="rotate(0,70,150)"/><rect x="82" y="146" width="8" height="8" transform="rotate(0,86,150)"/><rect x="90" y="146" width="8" height="8" transform="rotate(0,94,150)"/><rect x="114" y="146" width="8" height="8" transform="rotate(0,118,150)"/><rect x="122" y="146" width="8" height="8" transform="rotate(0,126,150)"/><rect x="130" y="146" width="8" height="8" transform="rotate(0,134,150)"/><rect x="146" y="146" width="8" height="8" transform="rotate(0,150,150)"/><rect x="170" y="146" width="8" height="8" transform="rotate(0,174,150)"/><rect x="194" y="146" width="8" height="8" transform="rotate(0,198,150)"/><rect x="202" y="146" width="8" height="8" transform="rotate(0,206,150)"/><rect x="234" y="146" width="8" height="8" transform="rotate(0,238,150)"/><rect x="250" y="146" width="8" height="8" transform="rotate(0,254,150)"/><rect x="258" y="146" width="8" height="8" transform="rotate(0,262,150)"/><rect x="66" y="154" width="8" height="8" transform="rotate(0,70,158)"/><rect x="90" y="154" width="8" height="8" transform="rotate(0,94,158)"/><rect x="106" y="154" width="8" height="8" transform="rotate(0,110,158)"/><rect x="122" y="154" width="8" height="8" transform="rotate(0,126,158)"/><rect x="138" y="154" width="8" height="8" transform="rotate(0,142,158)"/><rect x="146" y="154" width="8" height="8" transform="rotate(0,150,158)"/><rect x="154" y="154" width="8" height="8" transform="rotate(0,158,158)"/><rect x="162" y="154" width="8" height="8" transform="rotate(0,166,158)"/><rect x="170" y="154" width="8" height="8" transform="rotate(0,174,158)"/><rect x="194" y="154" width="8" height="8" transform="rotate(0,198,158)"/><rect x="226" y="154" width="8" height="8" transform="rotate(0,230,158)"/><rect x="234" y="154" width="8" height="8" transform="rotate(0,238,158)"/><rect x="250" y="154" width="8" height="8" transform="rotate(0,254,158)"/><rect x="42" y="162" width="8" height="8" transform="rotate(0,46,166)"/><rect x="66" y="162" width="8" height="8" transform="rotate(0,70,166)"/><rect x="74" y="162" width="8" height="8" transform="rotate(0,78,166)"/><rect x="82" y="162" width="8" height="8" transform="rotate(0,86,166)"/><rect x="90" y="162" width="8" height="8" transform="rotate(0,94,166)"/><rect x="122" y="162" width="8" height="8" transform="rotate(0,126,166)"/><rect x="146" y="162" width="8" height="8" transform="rotate(0,150,166)"/><rect x="154" y="162" width="8" height="8" transform="rotate(0,158,166)"/><rect x="162" y="162" width="8" height="8" transform="rotate(0,166,166)"/><rect x="170" y="162" width="8" height="8" transform="rotate(0,174,166)"/><rect x="186" y="162" width="8" height="8" transform="rotate(0,190,166)"/><rect x="194" y="162" width="8" height="8" transform="rotate(0,198,166)"/><rect x="202" y="162" width="8" height="8" transform="rotate(0,206,166)"/><rect x="210" y="162" width="8" height="8" transform="rotate(0,214,166)"/><rect x="234" y="162" width="8" height="8" transform="rotate(0,238,166)"/><rect x="250" y="162" width="8" height="8" transform="rotate(0,254,166)"/><rect x="258" y="162" width="8" height="8" transform="rotate(0,262,166)"/><rect x="42" y="170" width="8" height="8" transform="rotate(0,46,174)"/><rect x="66" y="170" width="8" height="8" transform="rotate(0,70,174)"/><rect x="74" y="170" width="8" height="8" transform="rotate(0,78,174)"/><rect x="90" y="170" width="8" height="8" transform="rotate(0,94,174)"/><rect x="98" y="170" width="8" height="8" transform="rotate(0,102,174)"/><rect x="122" y="170" width="8" height="8" transform="rotate(0,126,174)"/><rect x="146" y="170" width="8" height="8" transform="rotate(0,150,174)"/><rect x="202" y="170" width="8" height="8" transform="rotate(0,206,174)"/><rect x="210" y="170" width="8" height="8" transform="rotate(0,214,174)"/><rect x="234" y="170" width="8" height="8" transform="rotate(0,238,174)"/><rect x="242" y="170" width="8" height="8" transform="rotate(0,246,174)"/><rect x="258" y="170" width="8" height="8" transform="rotate(0,262,174)"/><rect x="34" y="178" width="8" height="8" transform="rotate(0,38,182)"/><rect x="50" y="178" width="8" height="8" transform="rotate(0,54,182)"/><rect x="58" y="178" width="8" height="8" transform="rotate(0,62,182)"/><rect x="66" y="178" width="8" height="8" transform="rotate(0,70,182)"/><rect x="82" y="178" width="8" height="8" transform="rotate(0,86,182)"/><rect x="98" y="178" width="8" height="8" transform="rotate(0,102,182)"/><rect x="114" y="178" width="8" height="8" transform="rotate(0,118,182)"/><rect x="122" y="178" width="8" height="8" transform="rotate(0,126,182)"/><rect x="130" y="178" width="8" height="8" transform="rotate(0,134,182)"/><rect x="138" y="178" width="8" height="8" transform="rotate(0,142,182)"/><rect x="162" y="178" width="8" height="8" transform="rotate(0,166,182)"/><rect x="178" y="178" width="8" height="8" transform="rotate(0,182,182)"/><rect x="202" y="178" width="8" height="8" transform="rotate(0,206,182)"/><rect x="218" y="178" width="8" height="8" transform="rotate(0,222,182)"/><rect x="226" y="178" width="8" height="8" transform="rotate(0,230,182)"/><rect x="250" y="178" width="8" height="8" transform="rotate(0,254,182)"/><rect x="258" y="178" width="8" height="8" transform="rotate(0,262,182)"/><rect x="42" y="186" width="8" height="8" transform="rotate(0,46,190)"/><rect x="58" y="186" width="8" height="8" transform="rotate(0,62,190)"/><rect x="74" y="186" width="8" height="8" transform="rotate(0,78,190)"/><rect x="90" y="186" width="8" height="8" transform="rotate(0,94,190)"/><rect x="106" y="186" width="8" height="8" transform="rotate(0,110,190)"/><rect x="154" y="186" width="8" height="8" transform="rotate(0,158,190)"/><rect x="162" y="186" width="8" height="8" transform="rotate(0,166,190)"/><rect x="170" y="186" width="8" height="8" transform="rotate(0,174,190)"/><rect x="178" y="186" width="8" height="8" transform="rotate(0,182,190)"/><rect x="186" y="186" width="8" height="8" transform="rotate(0,190,190)"/><rect x="194" y="186" width="8" height="8" transform="rotate(0,198,190)"/><rect x="202" y="186" width="8" height="8" transform="rotate(0,206,190)"/><rect x="234" y="186" width="8" height="8" transform="rotate(0,238,190)"/><rect x="250" y="186" width="8" height="8" transform="rotate(0,254,190)"/><rect x="34" y="194" width="8" height="8" transform="rotate(0,38,198)"/><rect x="50" y="194" width="8" height="8" transform="rotate(0,54,198)"/><rect x="66" y="194" width="8" height="8" transform="rotate(0,70,198)"/><rect x="74" y="194" width="8" height="8" transform="rotate(0,78,198)"/><rect x="82" y="194" width="8" height="8" transform="rotate(0,86,198)"/><rect x="106" y="194" width="8" height="8" transform="rotate(0,110,198)"/><rect x="114" y="194" width="8" height="8" transform="rotate(0,118,198)"/><rect x="130" y="194" width="8" height="8" transform="rotate(0,134,198)"/><rect x="162" y="194" width="8" height="8" transform="rotate(0,166,198)"/><rect x="170" y="194" width="8" height="8" transform="rotate(0,174,198)"/><rect x="194" y="194" width="8" height="8" transform="rotate(0,198,198)"/><rect x="202" y="194" width="8" height="8" transform="rotate(0,206,198)"/><rect x="210" y="194" width="8" height="8" transform="rotate(0,214,198)"/><rect x="218" y="194" width="8" height="8" transform="rotate(0,222,198)"/><rect x="226" y="194" width="8" height="8" transform="rotate(0,230,198)"/><rect x="98" y="202" width="8" height="8" transform="rotate(0,102,206)"/><rect x="106" y="202" width="8" height="8" transform="rotate(0,110,206)"/><rect x="130" y="202" width="8" height="8" transform="rotate(0,134,206)"/><rect x="138" y="202" width="8" height="8" transform="rotate(0,142,206)"/><rect x="162" y="202" width="8" height="8" transform="rotate(0,166,206)"/><rect x="186" y="202" width="8" height="8" transform="rotate(0,190,206)"/><rect x="194" y="202" width="8" height="8" transform="rotate(0,198,206)"/><rect x="226" y="202" width="8" height="8" transform="rotate(0,230,206)"/><rect x="242" y="202" width="8" height="8" transform="rotate(0,246,206)"/><rect x="250" y="202" width="8" height="8" transform="rotate(0,254,206)"/><rect x="258" y="202" width="8" height="8" transform="rotate(0,262,206)"/><rect x="130" y="210" width="8" height="8" transform="rotate(0,134,214)"/><rect x="146" y="210" width="8" height="8" transform="rotate(0,150,214)"/><rect x="170" y="210" width="8" height="8" transform="rotate(0,174,214)"/><rect x="186" y="210" width="8" height="8" transform="rotate(0,190,214)"/><rect x="194" y="210" width="8" height="8" transform="rotate(0,198,214)"/><rect x="210" y="210" width="8" height="8" transform="rotate(0,214,214)"/><rect x="226" y="210" width="8" height="8" transform="rotate(0,230,214)"/><rect x="234" y="210" width="8" height="8" transform="rotate(0,238,214)"/><rect x="250" y="210" width="8" height="8" transform="rotate(0,254,214)"/><rect x="258" y="210" width="8" height="8" transform="rotate(0,262,214)"/><rect x="114" y="218" width="8" height="8" transform="rotate(0,118,222)"/><rect x="138" y="218" width="8" height="8" transform="rotate(0,142,222)"/><rect x="146" y="218" width="8" height="8" transform="rotate(0,150,222)"/><rect x="154" y="218" width="8" height="8" transform="rotate(0,158,222)"/><rect x="162" y="218" width="8" height="8" transform="rotate(0,166,222)"/><rect x="170" y="218" width="8" height="8" transform="rotate(0,174,222)"/><rect x="178" y="218" width="8" height="8" transform="rotate(0,182,222)"/><rect x="194" y="218" width="8" height="8" transform="rotate(0,198,222)"/><rect x="226" y="218" width="8" height="8" transform="rotate(0,230,222)"/><rect x="234" y="218" width="8" height="8" transform="rotate(0,238,222)"/><rect x="250" y="218" width="8" height="8" transform="rotate(0,254,222)"/><rect x="258" y="218" width="8" height="8" transform="rotate(0,262,222)"/><rect x="98" y="226" width="8" height="8" transform="rotate(0,102,230)"/><rect x="106" y="226" width="8" height="8" transform="rotate(0,110,230)"/><rect x="130" y="226" width="8" height="8" transform="rotate(0,134,230)"/><rect x="146" y="226" width="8" height="8" transform="rotate(0,150,230)"/><rect x="162" y="226" width="8" height="8" transform="rotate(0,166,230)"/><rect x="170" y="226" width="8" height="8" transform="rotate(0,174,230)"/><rect x="178" y="226" width="8" height="8" transform="rotate(0,182,230)"/><rect x="194" y="226" width="8" height="8" transform="rotate(0,198,230)"/><rect x="202" y="226" width="8" height="8" transform="rotate(0,206,230)"/><rect x="210" y="226" width="8" height="8" transform="rotate(0,214,230)"/><rect x="218" y="226" width="8" height="8" transform="rotate(0,222,230)"/><rect x="226" y="226" width="8" height="8" transform="rotate(0,230,230)"/><rect x="250" y="226" width="8" height="8" transform="rotate(0,254,230)"/><rect x="258" y="226" width="8" height="8" transform="rotate(0,262,230)"/><rect x="114" y="234" width="8" height="8" transform="rotate(0,118,238)"/><rect x="122" y="234" width="8" height="8" transform="rotate(0,126,238)"/><rect x="130" y="234" width="8" height="8" transform="rotate(0,134,238)"/><rect x="138" y="234" width="8" height="8" transform="rotate(0,142,238)"/><rect x="146" y="234" width="8" height="8" transform="rotate(0,150,238)"/><rect x="162" y="234" width="8" height="8" transform="rotate(0,166,238)"/><rect x="186" y="234" width="8" height="8" transform="rotate(0,190,238)"/><rect x="194" y="234" width="8" height="8" transform="rotate(0,198,238)"/><rect x="218" y="234" width="8" height="8" transform="rotate(0,222,238)"/><rect x="226" y="234" width="8" height="8" transform="rotate(0,230,238)"/><rect x="242" y="234" width="8" height="8" transform="rotate(0,246,238)"/><rect x="250" y="234" width="8" height="8" transform="rotate(0,254,238)"/><rect x="258" y="234" width="8" height="8" transform="rotate(0,262,238)"/><rect x="98" y="242" width="8" height="8" transform="rotate(0,102,246)"/><rect x="106" y="242" width="8" height="8" transform="rotate(0,110,246)"/><rect x="114" y="242" width="8" height="8" transform="rotate(0,118,246)"/><rect x="138" y="242" width="8" height="8" transform="rotate(0,142,246)"/><rect x="162" y="242" width="8" height="8" transform="rotate(0,166,246)"/><rect x="170" y="242" width="8" height="8" transform="rotate(0,174,246)"/><rect x="186" y="242" width="8" height="8" transform="rotate(0,190,246)"/><rect x="194" y="242" width="8" height="8" transform="rotate(0,198,246)"/><rect x="218" y="242" width="8" height="8" transform="rotate(0,222,246)"/><rect x="226" y="242" width="8" height="8" transform="rotate(0,230,246)"/><rect x="234" y="242" width="8" height="8" transform="rotate(0,238,246)"/><rect x="258" y="242" width="8" height="8" transform="rotate(0,262,246)"/><rect x="114" y="250" width="8" height="8" transform="rotate(0,118,254)"/><rect x="122" y="250" width="8" height="8" transform="rotate(0,126,254)"/><rect x="154" y="250" width="8" height="8" transform="rotate(0,158,254)"/><rect x="162" y="250" width="8" height="8" transform="rotate(0,166,254)"/><rect x="170" y="250" width="8" height="8" transform="rotate(0,174,254)"/><rect x="178" y="250" width="8" height="8" transform="rotate(0,182,254)"/><rect x="194" y="250" width="8" height="8" transform="rotate(0,198,254)"/><rect x="210" y="250" width="8" height="8" transform="rotate(0,214,254)"/><rect x="226" y="250" width="8" height="8" transform="rotate(0,230,254)"/><rect x="250" y="250" width="8" height="8" transform="rotate(0,254,254)"/><rect x="98" y="258" width="8" height="8" transform="rotate(0,102,262)"/><rect x="114" y="258" width="8" height="8" transform="rotate(0,118,262)"/><rect x="146" y="258" width="8" height="8" transform="rotate(0,150,262)"/><rect x="154" y="258" width="8" height="8" transform="rotate(0,158,262)"/><rect x="162" y="258" width="8" height="8" transform="rotate(0,166,262)"/><rect x="170" y="258" width="8" height="8" transform="rotate(0,174,262)"/><rect x="186" y="258" width="8" height="8" transform="rotate(0,190,262)"/><rect x="194" y="258" width="8" height="8" transform="rotate(0,198,262)"/><rect x="202" y="258" width="8" height="8" transform="rotate(0,206,262)"/><rect x="250" y="258" width="8" height="8" transform="rotate(0,254,262)"/><rect x="258" y="258" width="8" height="8" transform="rotate(0,262,262)"/></clipPath><clipPath id="clip-path-corners-square-color-0-0-19"><path clip-rule="evenodd" d="M 34 34v 56h 56v -56zM 42 42h 40v 40h -40z" transform="rotate(0,62,62)"/></clipPath><clipPath id="clip-path-corners-dot-color-0-0-19"><rect x="50" y="50" width="24" height="24" transform="rotate(0,62,62)"/></clipPath><clipPath id="clip-path-corners-square-color-1-0-19"><path clip-rule="evenodd" d="M 210 34v 56h 56v -56zM 218 42h 40v 40h -40z" transform="rotate(90,238,62)"/></clipPath><clipPath id="clip-path-corners-dot-color-1-0-19"><rect x="226" y="50" width="24" height="24" transform="rotate(90,238,62)"/></clipPath><clipPath id="clip-path-corners-square-color-0-1-19"><path clip-rule="evenodd" d="M 34 210v 56h 56v -56zM 42 218h 40v 40h -40z" transform="rotate(-90,62,238)"/></clipPath><clipPath id="clip-path-corners-dot-color-0-1-19"><rect x="50" y="226" width="24" height="24" transform="rotate(-90,62,238)"/></clipPath></defs><rect x="0" y="0" height="300" width="300" clip-path="url('#clip-path-background-color-19')" fill="#ffffff"/><rect x="0" y="0" height="300" width="300" clip-path="url('#clip-path-dot-color-19')" fill="#000000"/><rect x="34" y="34" height="56" width="56" clip-path="url('#clip-path-corners-square-color-0-0-19')" fill="#000000"/><rect x="50" y="50" height="24" width="24" clip-path="url('#clip-path-corners-dot-color-0-0-19')" fill="#000000"/><rect x="210" y="34" height="56" width="56" clip-path="url('#clip-path-corners-square-color-1-0-19')" fill="#000000"/><rect x="226" y="50" height="24" width="24" clip-path="url('#clip-path-corners-dot-color-1-0-19')" fill="#000000"/><rect x="34" y="210" height="56" width="56" clip-path="url('#clip-path-corners-square-color-0-1-19')" fill="#000000"/><rect x="50" y="226" height="24" width="24" clip-path="url('#clip-path-corners-dot-color-0-1-19')" fill="#000000"/></svg>